{"title":"Tomb Raider 2018 BRRip 480p x264 [Eng] YsB TeaM Fl & SSX","magnet":"magnet:?xt=urn:btih:62da70821faeee63b4a62b249c160a4453108587&dn=Tomb+Raider+2018+BRRip+480p+x264+%5BEng%5D+YsB+TeaM+Fl+%26amp%3B+SSX&tr=udp%3A%2F%2Ftracker.leechers-paradise.org%3A6969&tr=udp%3A%2F%2Fzer0day.ch%3A1337&tr=udp%3A%2F%2Fopen.demonii.com%3A1337&tr=udp%3A%2F%2Ftracker.coppersurfer.tk%3A6969&tr=udp%3A%2F%2Fexodus.desync.com%3A6969","uploader":"Dj_YsB","categoryP":"video","categoryS":"movies","size":"457489533","seeders":"1","leechers":"1","description":"Tomb Raider 2018 BRRip 480p x264 [Eng] YsB TeaM Fl &amp; SSX\r\n\r\ninfo:\r\nGeneral\r\nComplete name               : Tomb Raider 2018 BRRip 480p x264 [Eng] YsB TeaM Fl &amp; SSX.mkv\r\nFormat                      : Matroska\r\nFormat version              : Version 2\r\nFile size                   : 435 MiB\r\nDuration                    : 1 h 57 min\r\nOverall bit rate            : 516 kb/s\r\n\r\nVideo\r\nID &#xA0; &#xA0; &#xA0; &#xA0; &#xA0; &#xA0; &#xA0; &#xA0; &#xA0; &#xA0; &#xA0; &#xA0; &#xA0;: 1\r\nFormat                      : AVC\r\nFormat/Info                 : Advanced Video Codec\r\nFormat profile              : High@L4.1mes\r\nCodec ID                    : V_MPEG4/ISO/AVC\r\nDuration                    : 1 h 57 min\r\nBit rate                    : 450 kb/s\r\nWidth                       : 848 pixels\r\nHeight                      : 352 pixels\r\nDisplay aspect ratio        : 2.40:1\r\nFrame rate mode             : Constant\r\nFrame rate                  : 23.976 (24000/1001) FPS\r\nColor space                 : YUV\r\nBit depth                   : 8 bits\r\nStream size                 : 379 MiB (87%)\r\n\r\n\r\nAudio #1\r\nID                          : 2\r\nFormat                      : AC-3\r\nCodec ID                    : A_AC3\r\nDuration                    : 1 h 57 min\r\nBit rate mode               : Constant\r\nBit rate                    : 64.0 kb/s\r\nChannel(s)                  : 2 channels\r\nChannel positions           : Front: L R\r\nSampling rate               : 48.0 kHz\r\nBit depth                   : 16 bits\r\nCompression mode            : Lossy\r\nStream size                 : 53.9 MiB (12%)\r\nLanguage                    : English\r\n\r\n\r\nScreenshot: <a href=\"\nhttps://i.imgur.com/2vijmly.jpg\" rel=\"nofollow\" target=\"_NEW\">\nhttps://i.imgur.com/2vijmly.jpg</a> <a href=\"\nhttps://i.imgur.com/xq3StrM.jpg\" rel=\"nofollow\" target=\"_NEW\">\nhttps://i.imgur.com/xq3StrM.jpg</a> <a href=\"\nhttps://i.imgur.com/elbXHyp.jpg\" rel=\"nofollow\" target=\"_NEW\">\nhttps://i.imgur.com/elbXHyp.jpg</a>\r\n\r\nThanks.\r\nTeaM FL , TeaM SSX, AnantaRdp\r\n\r\nEncoded and Seeding Through AnantaRdp Rdp","last_updated":"2018-06-02T12:02:38.100Z","parsed":{"xt":"urn:btih:62da70821faeee63b4a62b249c160a4453108587","dn":"Tomb Raider 2018 BRRip 480p x264 [Eng] YsB TeaM Fl &amp; SSX","tr":["udp://exodus.desync.com:6969","udp://open.demonii.com:1337","udp://tracker.coppersurfer.tk:6969","udp://tracker.leechers-paradise.org:6969","udp://zer0day.ch:1337"],"infoHash":"62da70821faeee63b4a62b249c160a4453108587","infoHashBuffer":{"type":"Buffer","data":[98,218,112,130,31,174,238,99,180,166,43,36,156,22,10,68,83,16,133,135]},"name":"Tomb Raider 2018 BRRip 480p x264 [Eng] YsB TeaM Fl &amp; SSX","announce":["udp://exodus.desync.com:6969","udp://open.demonii.com:1337","udp://tracker.coppersurfer.tk:6969","udp://tracker.leechers-paradise.org:6969","udp://zer0day.ch:1337"],"urlList":[]}}